<?xml version="1.0" encoding="UTF-8"?>
<svg xmlns="http://www.w3.org/2000/svg" width="0" height="0">
    <symbol id="arrow-right" viewBox="0 0 16 16">
        <path d="M2.6665 7.81714C2.6665 7.56401 2.85461 7.35481 3.09866 7.3217L3.1665 7.31714L13.1665 7.31714C13.4426 7.31714 13.6665 7.541 13.6665 7.81714C13.6665 8.07027 13.4784 8.27947 13.2344 8.31257L13.1665 8.31714H3.1665C2.89036 8.31714 2.6665 8.09328 2.6665 7.81714Z"/>
        <path d="M8.78051 4.15514C8.58483 3.9603 8.58415 3.64372 8.77899 3.44804C8.95612 3.27015 9.23386 3.25341 9.42991 3.39822L9.48609 3.44652L13.5194 7.46252C13.6978 7.64017 13.7141 7.91891 13.5681 8.11496L13.5195 8.17111L9.48612 12.1878C9.29046 12.3826 8.97387 12.382 8.77902 12.1863C8.60187 12.0084 8.58631 11.7306 8.73195 11.5352L8.78048 11.4792L12.4578 7.81663L8.78051 4.15514Z"/>
    </symbol>

    <symbol id="arrow-left-grey" viewBox="0 0 7 10">
        <path d="M6.79141 9.05421C7.02467 9.26992 7.02548 9.6204 6.79322 9.83704C6.58208 10.034 6.251 10.0525 6.01729 9.89219L5.95032 9.83873L1.14237 5.39264C0.929677 5.19596 0.910329 4.88737 1.08433 4.67032L1.14233 4.60816L5.95028 0.161336C6.18353 -0.0543896 6.56091 -0.0536639 6.79319 0.162956C7.00435 0.359884 7.0229 0.667444 6.84929 0.883814L6.79144 0.945788L2.40784 5.00061L6.79141 9.05421Z" fill="#3D3D3D"></path>
    </symbol>

    <symbol id="arrow-left-white" viewBox="0 0 7 10">
        <path d="M6.79141 9.05421C7.02467 9.26992 7.02548 9.6204 6.79322 9.83704C6.58208 10.034 6.251 10.0525 6.01729 9.89219L5.95032 9.83873L1.14237 5.39264C0.929677 5.19596 0.910329 4.88737 1.08433 4.67032L1.14233 4.60816L5.95028 0.161336C6.18353 -0.0543896 6.56091 -0.0536639 6.79319 0.162956C7.00435 0.359884 7.0229 0.667444 6.84929 0.883814L6.79144 0.945788L2.40784 5.00061L6.79141 9.05421Z" fill="white"></path>
    </symbol>

    <symbol id="pagination-arrow-right" fill="none" viewBox="0 0 18 18">
        <path d="M6.375 3.75C6.375 3.75 11.625 6.858 11.625 9C11.625 11.1413 6.375 14.25 6.375 14.25" stroke="#3D3D3D"
              stroke-width="1.5" stroke-linecap="round" stroke-linejoin="round"></path>
    </symbol>
</svg>
