<?xml version="1.0" encoding="UTF-8"?>
<svg xmlns="http://www.w3.org/2000/svg" width="0" height="0">

    <symbol id="arrow-right" viewBox="0 0 16 16">
        <path d="M2.6665 7.81714C2.6665 7.56401 2.85461 7.35481 3.09866 7.3217L3.1665 7.31714L13.1665 7.31714C13.4426 7.31714 13.6665 7.541 13.6665 7.81714C13.6665 8.07027 13.4784 8.27947 13.2344 8.31257L13.1665 8.31714H3.1665C2.89036 8.31714 2.6665 8.09328 2.6665 7.81714Z"/>
        <path d="M8.78051 4.15514C8.58483 3.9603 8.58415 3.64372 8.77899 3.44804C8.95612 3.27015 9.23386 3.25341 9.42991 3.39822L9.48609 3.44652L13.5194 7.46252C13.6978 7.64017 13.7141 7.91891 13.5681 8.11496L13.5195 8.17111L9.48612 12.1878C9.29046 12.3826 8.97387 12.382 8.77902 12.1863C8.60187 12.0084 8.58631 11.7306 8.73195 11.5352L8.78048 11.4792L12.4578 7.81663L8.78051 4.15514Z"/>
    </symbol>

    <symbol id="arrow-down" viewBox="0 0 16 16">
        <path d="M12.6667 5.66669L8.00004 10.3334L3.33337 5.66669"
              stroke="currentColor" stroke-width="1.5" stroke-linecap="round" stroke-linejoin="round"/>
    </symbol>

    <symbol id="promo-arrow-right" viewBox="0 0 18 18" fill="transparent">
        <path d="M14.8126 8.79428H3.56258"
              stroke="currentColor" stroke-width="1.5" stroke-linecap="round"
              stroke-linejoin="round"/>
        <path d="M10.2748 4.2759C10.2748 4.2759 14.8123 6.72165 14.8123 8.79315C14.8123 10.8662 10.2748 13.3127 10.2748 13.3127"
              stroke="currentColor"
              stroke-width="1.5" stroke-linecap="round" stroke-linejoin="round"/>
    </symbol>

    <symbol id="pagination-arrow-right" fill="transparent" viewBox="0 0 18 18">
        <path d="M6.375 3.75C6.375 3.75 11.625 6.858 11.625 9C11.625 11.1413 6.375 14.25 6.375 14.25"
              stroke="currentColor"
              stroke-width="1.5" stroke-linecap="round" stroke-linejoin="round"></path>
    </symbol>

    <symbol id="nav-arrow-right" viewBox="0 0 7 10">
        <path d="M1.14228 0.945805C0.909014 0.730097 0.908201 0.379612 1.14046 0.162973C1.35161 -0.0339699 1.68269
        -0.0524979 1.9164 0.107825L1.98337 0.161288L6.79132 4.60737C7.00401 4.80406 7.02336 5.11265 6.84935 5.32969L6.79135
        5.39186L1.9834 9.83868C1.75016 10.0544 1.37278 10.0537 1.1405 9.83706C0.929333 9.64013 0.910782 9.33257 1.08439
        9.1162L1.14224 9.05423L5.52584 4.99941L1.14228 0.945805Z"/>
    </symbol>

    <symbol id="login-icon" viewBox="0 0 20 20" fill="transparent">
        <path d="M18.1601 10.1006H8.12598" stroke="currentColor" stroke-width="1.5" stroke-linecap="round" stroke-linejoin="round"/>
        <path d="M15.7212 7.67059L18.1612 10.1006L15.7212 12.5306" stroke="currentColor" stroke-width="1.5" stroke-linecap="round" stroke-linejoin="round"/>
        <path d="M13.6342 6.35826C13.3592 3.37493 12.2425 2.2916 7.80082 2.2916C1.88332 2.2916 1.88332 4.2166 1.88332 9.99993C1.88332 15.7833 1.88332 17.7083 7.80082 17.7083C12.2425 17.7083 13.3592 16.6249 13.6342 13.6416"
              stroke="currentColor" stroke-width="1.5" stroke-linecap="round" stroke-linejoin="round"/>
    </symbol>

    <symbol id="burger-menu" width="24" height="24" viewBox="0 0 24 24">
        <path d="M4 18L20 18" stroke="#000000" stroke-width="2" stroke-linecap="round"/>
        <path d="M4 12L20 12" stroke="#000000" stroke-width="2" stroke-linecap="round"/>
        <path d="M4 6L20 6" stroke="#000000" stroke-width="2" stroke-linecap="round"/>
    </symbol>
</svg>
